<?xml version="1.0" standalone="no"?>
<!DOCTYPE svg PUBLIC "-//W3C//DTD SVG 20010904//EN"
 "http://www.w3.org/TR/2001/REC-SVG-20010904/DTD/svg10.dtd">
<svg version="1.0" xmlns="http://www.w3.org/2000/svg"
 width="374.000000pt" height="205.000000pt" viewBox="0 0 374.000000 205.000000"
 preserveAspectRatio="xMidYMid meet">

<g transform="translate(0.000000,205.000000) scale(0.100000,-0.100000)"
fill="#FFFFFF" stroke="none">
<path d="M1235 1928 c-48 -17 -93 -56 -117 -101 -20 -37 -23 -61 -26 -189 l-4
-148 -404 0 -404 0 0 -35 c0 -30 -3 -35 -24 -35 -38 0 -56 -10 -72 -42 -16
-31 -12 -62 14 -90 11 -14 31 -18 80 -18 64 0 65 0 122 -54 69 -63 151 -96
242 -96 72 0 115 -17 151 -59 l27 -33 0 -244 c0 -134 3 -244 6 -244 4 0 29 21
56 46 73 68 126 89 228 89 145 0 150 -3 428 -278 l242 -241 0 430 0 431 23 34
c31 46 63 59 169 69 107 10 172 38 242 105 47 44 50 45 111 45 57 0 66 3 84
26 12 15 21 38 21 51 0 34 -42 73 -80 73 -29 0 -31 2 -28 33 l3 32 -407 3
-408 2 0 146 c0 124 -3 150 -19 183 -49 95 -160 143 -256 109z"/>
<path d="M3076 1024 c-7 -19 -6 -322 1 -341 3 -7 14 -13 24 -13 18 0 19 10 19
185 0 175 -1 185 -19 185 -10 0 -22 -7 -25 -16z"/>
<path d="M1996 969 c-8 -19 -40 -92 -70 -163 -31 -71 -56 -131 -56 -132 0 -2
12 -4 26 -4 19 0 28 7 37 30 11 29 13 30 83 30 70 0 72 -1 84 -30 9 -21 19
-30 36 -30 13 0 24 4 24 9 0 15 -127 302 -139 314 -8 8 -14 1 -25 -24z m50
-131 c10 -29 21 -56 22 -60 2 -4 -19 -8 -47 -8 -28 0 -51 4 -51 9 0 15 42 111
49 111 4 0 16 -23 27 -52z"/>
<path d="M2305 913 c-11 -3 -26 -10 -32 -15 -9 -7 -13 -7 -13 1 0 6 -11 11
-25 11 l-26 0 3 -117 c3 -112 4 -118 24 -121 21 -3 22 2 25 83 3 72 7 89 23
101 26 18 51 18 70 -2 12 -12 16 -36 16 -100 0 -83 0 -84 25 -84 25 0 25 0 25
94 0 84 -2 98 -22 119 -24 26 -59 37 -93 30z"/>
<path d="M2548 903 c-47 -19 -73 -69 -65 -127 11 -77 84 -116 163 -86 15 6 29
9 31 6 6 -6 -17 -49 -31 -58 -19 -13 -81 -9 -102 6 -13 10 -23 11 -31 4 -23
-19 -14 -35 27 -52 54 -21 98 -20 137 4 43 26 54 73 51 202 -3 91 -5 103 -22
106 -10 2 -22 -1 -26 -8 -5 -8 -13 -9 -26 -2 -37 18 -69 20 -106 5z m109 -59
c20 -20 24 -31 19 -57 -8 -40 -23 -55 -63 -63 -66 -13 -108 73 -61 123 29 31
72 30 105 -3z"/>
<path d="M3254 909 c-17 -5 -38 -17 -48 -27 -14 -16 -14 -21 -2 -31 10 -9 20
-8 43 5 35 21 79 13 88 -16 10 -31 -2 -40 -59 -40 -42 0 -57 -5 -74 -23 -28
-30 -28 -52 3 -82 25 -26 85 -34 115 -15 9 5 19 5 27 -2 7 -5 20 -8 28 -4 12
4 15 23 15 81 0 88 -18 140 -52 150 -43 12 -53 13 -84 4z m86 -147 c0 -25 -34
-52 -64 -52 -37 0 -54 23 -35 46 12 15 99 20 99 6z"/>
<path d="M2800 819 c0 -87 1 -92 29 -120 23 -22 39 -29 69 -29 77 0 112 55
112 178 0 60 -1 62 -25 62 -24 0 -25 -2 -25 -74 0 -65 -3 -79 -24 -103 -24
-27 -26 -27 -53 -13 -27 15 -28 19 -31 103 -3 85 -3 87 -27 87 -25 0 -25 -1
-25 -91z"/>
<path d="M3460 790 l0 -120 25 0 c25 0 25 1 25 78 0 86 10 104 63 117 38 10
38 45 -1 45 -15 0 -34 -6 -41 -12 -11 -10 -14 -10 -18 0 -3 6 -16 12 -29 12
l-24 0 0 -120z"/>
<path d="M1037 576 c-20 -7 -65 -38 -100 -69 l-62 -54 -125 -5 c-106 -4 -138
-9 -211 -35 -106 -37 -202 -100 -294 -192 l-69 -71 732 0 733 0 -19 28 c-41
57 -368 368 -407 387 -51 24 -130 29 -178 11z"/>
<path d="M2202 533 c-16 -31 3 -63 37 -63 37 0 57 30 41 60 -14 26 -65 27 -78
3z"/>
<path d="M1870 325 l0 -175 35 0 35 0 0 60 c0 59 0 60 28 60 23 0 37 -11 72
-60 40 -56 46 -60 82 -60 44 0 45 -3 -15 78 l-39 54 20 21 c45 48 49 115 10
157 -30 32 -61 40 -149 40 l-79 0 0 -175z m161 105 c22 -12 26 -59 7 -78 -7
-7 -31 -12 -55 -12 l-43 0 0 50 0 50 36 0 c19 0 44 -5 55 -10z"/>
<path d="M2411 403 c-46 -23 -71 -67 -71 -127 0 -43 4 -53 38 -86 50 -50 94
-59 156 -32 36 16 50 30 67 65 36 73 10 145 -65 181 -43 20 -82 20 -125 -1z
m114 -73 c10 -11 18 -34 17 -51 -2 -93 -132 -92 -132 1 0 63 74 95 115 50z"/>
<path d="M2207 403 c-3 -5 -4 -62 -4 -128 l2 -120 33 -3 32 -3 0 130 0 131
-29 0 c-17 0 -32 -3 -34 -7z"/>
</g>
</svg>
